<svg width="1920.0000000000002" height="1080" xmlns="http://www.w3.org/2000/svg" style="vector-effect: non-scaling-stroke;">
 <g id="Layer_1">
  <title>Layer 1</title>
  <rect fill="#007f5d" x="-49.29467" y="-145.61129" width="1045.71431" height="374.7622" id="svg_13" transform="rotate(131.69, 473.562, 41.7698)"/>
  <rect fill="#007f5d" x="1584.70253" y="-187.43728" width="1891.13511" height="1273.89738" id="svg_9" transform="rotate(62.5367, 2530.27, 449.511)"/>
  <rect fill="#008463" x="-259.99999" y="100.00001" width="808.57145" height="557.14287" id="svg_4" transform="rotate(-83, 144.286, 378.571)"/>
  <rect fill="#008e68" x="-1076.72101" y="-1854.90682" width="1437.69817" height="3499.48427" id="svg_12" transform="rotate(24.3355, -357.872, -105.165)"/>
  <rect fill="#009e76" x="-1142.39734" y="472.81639" width="1597.40914" height="1095.07789" id="svg_3" transform="rotate(-28, -343.693, 1020.36)"/>
  <path fill="#00bc90" opacity="undefined" transform="rotate(-22, 381.853, -510.226)" d="m-1643.44522,-1084.89662l4050.59661,0l0,1149.34113l-4050.59661,0l0,-1149.34113z" id="svg_1"/>
  <rect style="vector-effect: non-scaling-stroke;" fill="#00d39b" x="-1174.45815" y="1164.54865" width="3777.01227" height="331.42857" id="svg_5" transform="rotate(17, 714.048, 1330.26)"/>
  <rect fill="#00af7e" x="-659.18473" y="1039.72815" width="4065.47593" height="990.03704" id="svg_8" transform="rotate(-15, 1373.55, 1534.75)"/>
  <path fill="#009970" opacity="undefined" transform="rotate(25, 2445.97, 1177.24)" d="m1720.49828,-560.25596l1450.93533,0l0,3475.00132l-1450.93533,0l0,-3475.00132z" id="svg_6"/>
  <rect fill="#00a078" x="1768.63417" y="-381.63678" width="2107.41369" height="1321.69205" id="svg_11" transform="rotate(42, 2822.34, 279.209)"/>
  <rect fill="#24ad7f" x="-787.64711" y="-918.44891" width="4321.0315" height="883.90956" id="svg_10" transform="rotate(20, 1372.87, -476.494)"/>
 </g>

</svg>